<!-- Beer Favicon — Amber Theme -->
<svg width="64" height="64" viewBox="0 0 64 64" fill="none" xmlns="http://www.w3.org/2000/svg" role="img" aria-labelledby="title desc">
  <title id="title">Beer Icon</title>
  <desc id="desc">A stylized beer mug with foam using amber colors</desc>

  <!-- Background (soft rounded square) -->
  <rect x="2" y="2" width="60" height="60" rx="14" fill="#fffbeb"/>

  <!-- Mug body shadow -->
  <rect x="16" y="20" width="24" height="26" rx="4" fill="#fde68a"/>
  <!-- Beer gradient -->
  <defs>
    <linearGradient id="beer" x1="16" y1="20" x2="40" y2="46" gradientUnits="userSpaceOnUse">
      <stop offset="0" stop-color="#fcd34d"/>  <!-- amber-300 -->
      <stop offset="1" stop-color="#f59e0b"/>  <!-- amber-500 -->
    </linearGradient>
    <linearGradient id="handle" x1="44" y1="26" x2="56" y2="42">
      <stop offset="0" stop-color="#fde68a"/>  <!-- amber-200 -->
      <stop offset="1" stop-color="#f59e0b"/>  <!-- amber-500 -->
    </linearGradient>
    <linearGradient id="foam" x1="16" y1="16" x2="42" y2="24">
      <stop offset="0" stop-color="#fff"/>
      <stop offset="1" stop-color="#fff9e6"/>
    </linearGradient>
  </defs>

  <!-- Beer (inside mug) -->
  <rect x="18" y="24" width="20" height="20" rx="3" fill="url(#beer)"/>

  <!-- Mug glass highlight -->
  <rect x="16" y="20" width="24" height="26" rx="4" stroke="#b45309" stroke-opacity=".15" stroke-width="2"/>

  <!-- Bubbles -->
  <circle cx="24" cy="30" r="1.2" fill="#fde68a"/>
  <circle cx="28" cy="34" r="1.1" fill="#fde68a" opacity=".9"/>
  <circle cx="33" cy="29" r="1" fill="#fde68a" opacity=".8"/>
  <circle cx="31" cy="38" r="1.2" fill="#fde68a" opacity=".8"/>

  <!-- Foam -->
  <path d="M18 24c0-4 3.2-8 9-8 2.6 0 4.5.7 5.9 1.9 1.2-1.1 2.9-1.7 4.9-1.7 3.8 0 6.2 2.1 6.2 5.2 0 .9-.2 1.8-.5 2.6H18z" fill="url(#foam)"/>

  <!-- Handle -->
  <path d="M42 26h6.2c3.3 0 5.8 2.5 5.8 5.6s-2.5 5.6-5.8 5.6H42v-2.6h5.9c1.6 0 3-1.3 3-3s-1.3-3-3-3H42V26z" fill="url(#handle)"/>

  <!-- Base line (plate) -->
  <rect x="14" y="48" width="36" height="2.5" rx="1.25" fill="#f59e0b" opacity=".35"/>

  <!-- Accent sparkle -->
  <path d="M22 19.5c0 .8-.6 1.4-1.4 1.4s-1.4-.6-1.4-1.4.6-1.4 1.4-1.4 1.4.6 1.4 1.4z" fill="#fcd34d" opacity=".9"/>
</svg>
